<svg width="198.000000" height="59.000000" viewBox="0 0 198 59" fill="none" xmlns="http://www.w3.org/2000/svg" xmlns:xlink="http://www.w3.org/1999/xlink">
	<desc>
			Created with Pixso.
	</desc>
	<defs>
		<clipPath id="clip1_1277">
			<rect id="Download_on_the_App_Store_Badge 1" width="198.000000" height="59.000000" fill="white" fill-opacity="0"/>
		</clipPath>
	</defs>
	<rect id="Download_on_the_App_Store_Badge 1" width="198.000000" height="59.000000" fill="#FFFFFF" fill-opacity="0"/>
	<g clip-path="url(#clip1_1277)">
		<path id="Vector" d="M190.95 59L6.93 59C3.11 59 0 55.86 0 52.01L0 6.97C0 3.12 3.11 0 6.93 0L190.95 0C194.77 0 198 3.12 198 6.97L198 52.01C198 55.86 194.77 59 190.95 59Z" fill="#000000" fill-opacity="1.000000" fill-rule="nonzero"/>
		<path id="Vector" d="M196.58 52.02C196.58 55.14 194.06 57.66 190.95 57.66L6.93 57.66C3.82 57.66 1.3 55.14 1.3 52.02L1.3 6.96C1.3 3.84 3.82 1.31 6.93 1.31L190.95 1.31C194.06 1.31 196.57 3.84 196.57 6.96L196.58 52.02Z" fill="#FFFFFF" fill-opacity="1.000000" fill-rule="nonzero"/>
		<path id="Vector" d="M44.18 29.18C44.14 24.42 48.05 22.11 48.23 22C46.02 18.75 42.58 18.31 41.37 18.27C38.49 17.97 35.69 20.01 34.22 20.01C32.72 20.01 30.46 18.3 28.02 18.35C24.88 18.4 21.95 20.23 20.33 23.07C17.01 28.85 19.49 37.36 22.67 42.03C24.27 44.32 26.13 46.88 28.56 46.79C30.95 46.69 31.84 45.26 34.71 45.26C37.56 45.26 38.4 46.79 40.88 46.73C43.44 46.69 45.05 44.43 46.59 42.12C48.43 39.5 49.17 36.91 49.2 36.78C49.14 36.76 44.23 34.87 44.18 29.18Z" fill="#000000" fill-opacity="1.000000" fill-rule="nonzero"/>
		<path id="Vector" d="M39.49 15.2C40.77 13.58 41.65 11.39 41.4 9.17C39.55 9.25 37.23 10.46 35.89 12.03C34.71 13.42 33.66 15.7 33.93 17.84C36.01 18 38.15 16.78 39.49 15.2Z" fill="#000000" fill-opacity="1.000000" fill-rule="nonzero"/>
		<path id="Vector" d="M78.67 46.46L75.34 46.46L73.52 40.7L67.18 40.7L65.44 46.46L62.2 46.46L68.48 26.83L72.36 26.83L78.67 46.46ZM72.97 38.28L71.32 33.15C71.14 32.63 70.82 31.4 70.33 29.46L70.28 29.46C70.08 30.29 69.77 31.52 69.35 33.15L67.73 38.28L72.97 38.28Z" fill="#000000" fill-opacity="1.000000" fill-rule="nonzero"/>
		<path id="Vector" d="M94.83 39.21C94.83 41.62 94.19 43.52 92.89 44.92C91.73 46.16 90.29 46.78 88.58 46.78C86.72 46.78 85.39 46.11 84.58 44.77L84.52 44.77L84.52 52.23L81.4 52.23L81.4 36.97C81.4 35.46 81.36 33.9 81.28 32.31L84.03 32.31L84.2 34.55L84.26 34.55C85.31 32.86 86.89 32.02 89.01 32.02C90.67 32.02 92.06 32.68 93.17 34C94.28 35.32 94.83 37.06 94.83 39.21ZM91.65 39.33C91.65 37.95 91.34 36.81 90.72 35.92C90.04 34.99 89.14 34.52 88 34.52C87.23 34.52 86.53 34.78 85.9 35.29C85.27 35.81 84.86 36.48 84.67 37.32C84.57 37.71 84.52 38.03 84.52 38.28L84.52 40.64C84.52 41.67 84.84 42.54 85.47 43.25C86.09 43.95 86.91 44.31 87.91 44.31C89.09 44.31 90.01 43.85 90.66 42.94C91.32 42.03 91.65 40.82 91.65 39.33Z" fill="#000000" fill-opacity="1.000000" fill-rule="nonzero"/>
		<path id="Vector" d="M111.02 39.21C111.02 41.62 110.37 43.52 109.08 44.92C107.92 46.16 106.48 46.78 104.77 46.78C102.91 46.78 101.58 46.11 100.77 44.77L100.71 44.77L100.71 52.23L97.58 52.23L97.58 36.97C97.58 35.46 97.54 33.9 97.47 32.31L100.22 32.31L100.39 34.55L100.45 34.55C101.49 32.86 103.08 32.02 105.2 32.02C106.86 32.02 108.25 32.68 109.36 34C110.46 35.32 111.02 37.06 111.02 39.21ZM107.84 39.33C107.84 37.95 107.53 36.81 106.91 35.92C106.23 34.99 105.33 34.52 104.19 34.52C103.41 34.52 102.71 34.78 102.09 35.29C101.46 35.81 101.05 36.48 100.86 37.32C100.76 37.71 100.71 38.03 100.71 38.28L100.71 40.64C100.71 41.67 101.03 42.54 101.65 43.25C102.28 43.95 103.09 44.31 104.1 44.31C105.28 44.31 106.19 43.85 106.85 42.94C107.51 42.03 107.84 40.82 107.84 39.33Z" fill="#000000" fill-opacity="1.000000" fill-rule="nonzero"/>
		<path id="Vector" d="M129.12 40.96C129.12 42.63 128.54 43.99 127.39 45.04C126.11 46.18 124.34 46.75 122.07 46.75C119.97 46.75 118.29 46.35 117.01 45.53L117.74 42.91C119.11 43.75 120.61 44.16 122.26 44.16C123.43 44.16 124.35 43.9 125.01 43.36C125.66 42.83 125.99 42.11 125.99 41.22C125.99 40.42 125.72 39.75 125.18 39.21C124.64 38.66 123.74 38.15 122.49 37.69C119.07 36.41 117.36 34.53 117.36 32.06C117.36 30.45 117.96 29.12 119.16 28.09C120.35 27.06 121.95 26.55 123.94 26.55C125.71 26.55 127.19 26.86 128.37 27.48L127.59 30.04C126.49 29.44 125.24 29.14 123.85 29.14C122.75 29.14 121.89 29.41 121.27 29.96C120.75 30.44 120.49 31.03 120.49 31.73C120.49 32.51 120.79 33.15 121.39 33.65C121.91 34.12 122.86 34.63 124.23 35.17C125.91 35.85 127.14 36.64 127.93 37.56C128.72 38.46 129.12 39.6 129.12 40.96Z" fill="#000000" fill-opacity="1.000000" fill-rule="nonzero"/>
		<path id="Vector" d="M139.46 34.67L136.01 34.67L136.01 41.54C136.01 43.29 136.62 44.16 137.84 44.16C138.39 44.16 138.86 44.11 139.22 44.02L139.31 46.4C138.7 46.64 137.88 46.75 136.88 46.75C135.64 46.75 134.68 46.37 133.98 45.62C133.29 44.86 132.94 43.59 132.94 41.8L132.94 34.67L130.89 34.67L130.89 32.31L132.94 32.31L132.94 29.71L136.01 28.78L136.01 32.31L139.46 32.31L139.46 34.67Z" fill="#000000" fill-opacity="1.000000" fill-rule="nonzero"/>
		<path id="Vector" d="M155.01 39.27C155.01 41.45 154.39 43.23 153.16 44.63C151.86 46.07 150.14 46.78 148 46.78C145.93 46.78 144.29 46.09 143.06 44.72C141.84 43.34 141.22 41.6 141.22 39.5C141.22 37.31 141.85 35.51 143.12 34.12C144.38 32.72 146.09 32.02 148.23 32.02C150.3 32.02 151.96 32.71 153.21 34.09C154.41 35.43 155.01 37.15 155.01 39.27ZM151.76 39.37C151.76 38.07 151.49 36.95 150.92 36.01C150.27 34.88 149.33 34.32 148.12 34.32C146.86 34.32 145.91 34.88 145.25 36.01C144.69 36.95 144.41 38.09 144.41 39.43C144.41 40.74 144.69 41.86 145.25 42.79C145.93 43.92 146.87 44.48 148.09 44.48C149.28 44.48 150.22 43.91 150.9 42.76C151.47 41.81 151.76 40.68 151.76 39.37Z" fill="#000000" fill-opacity="1.000000" fill-rule="nonzero"/>
		<path id="Vector" d="M165.17 35.07C164.86 35.02 164.53 34.99 164.19 34.99C163.09 34.99 162.24 35.41 161.64 36.24C161.12 36.98 160.86 37.91 160.86 39.04L160.86 46.46L157.73 46.46L157.76 36.77C157.76 35.14 157.72 33.65 157.64 32.31L160.37 32.31L160.48 35.02L160.57 35.02C160.9 34.09 161.42 33.34 162.13 32.78C162.83 32.27 163.58 32.02 164.39 32.02C164.68 32.02 164.94 32.04 165.17 32.08L165.17 35.07Z" fill="#000000" fill-opacity="1.000000" fill-rule="nonzero"/>
		<path id="Vector" d="M179.16 38.72C179.16 39.28 179.12 39.75 179.04 40.14L169.66 40.14C169.7 41.54 170.15 42.61 171.02 43.35C171.81 44.01 172.84 44.34 174.09 44.34C175.48 44.34 176.75 44.12 177.89 43.67L178.38 45.85C177.05 46.44 175.47 46.73 173.66 46.73C171.48 46.73 169.76 46.08 168.52 44.79C167.27 43.5 166.65 41.77 166.65 39.59C166.65 37.46 167.23 35.68 168.39 34.26C169.6 32.75 171.24 31.99 173.31 31.99C175.34 31.99 176.87 32.75 177.92 34.26C178.74 35.46 179.16 36.95 179.16 38.72ZM176.18 37.9C176.2 36.97 175.99 36.16 175.57 35.48C175.03 34.61 174.2 34.17 173.08 34.17C172.05 34.17 171.22 34.6 170.59 35.45C170.07 36.13 169.76 36.95 169.66 37.9L176.18 37.9Z" fill="#000000" fill-opacity="1.000000" fill-rule="nonzero"/>
		<path id="Vector" d="M71.94 14.76C71.94 16.49 71.42 17.8 70.38 18.68C69.43 19.49 68.06 19.89 66.3 19.89C65.43 19.89 64.68 19.86 64.05 19.78L64.05 10.29C64.87 10.16 65.75 10.09 66.7 10.09C68.38 10.09 69.65 10.46 70.5 11.19C71.46 12.03 71.94 13.21 71.94 14.76ZM70.31 14.8C70.31 13.68 70.02 12.81 69.43 12.21C68.83 11.61 67.97 11.31 66.83 11.31C66.34 11.31 65.93 11.34 65.59 11.41L65.59 18.62C65.78 18.65 66.13 18.66 66.63 18.66C67.8 18.66 68.71 18.34 69.35 17.68C69.99 17.02 70.31 16.06 70.31 14.8Z" fill="#000000" fill-opacity="1.000000" fill-rule="nonzero"/>
		<path id="Vector" d="M80.53 16.27C80.53 17.34 80.22 18.22 79.62 18.91C78.98 19.61 78.14 19.97 77.08 19.97C76.07 19.97 75.26 19.63 74.66 18.95C74.06 18.27 73.76 17.42 73.76 16.39C73.76 15.31 74.07 14.43 74.69 13.74C75.31 13.06 76.15 12.71 77.2 12.71C78.21 12.71 79.03 13.05 79.65 13.73C80.23 14.39 80.53 15.24 80.53 16.27ZM78.93 16.32C78.93 15.68 78.8 15.13 78.52 14.67C78.2 14.12 77.74 13.84 77.14 13.84C76.53 13.84 76.06 14.12 75.73 14.67C75.46 15.13 75.32 15.69 75.32 16.35C75.32 16.99 75.46 17.54 75.73 18C76.07 18.56 76.53 18.84 77.13 18.84C77.72 18.84 78.18 18.55 78.51 17.99C78.79 17.52 78.93 16.97 78.93 16.32Z" fill="#000000" fill-opacity="1.000000" fill-rule="nonzero"/>
		<path id="Vector" d="M92.05 12.86L89.89 19.81L88.48 19.81L87.58 16.79C87.36 16.04 87.17 15.29 87.03 14.54L87 14.54C86.87 15.31 86.68 16.05 86.44 16.79L85.49 19.81L84.07 19.81L82.03 12.86L83.61 12.86L84.39 16.16C84.58 16.94 84.74 17.69 84.86 18.39L84.89 18.39C85.01 17.81 85.2 17.07 85.46 16.18L86.44 12.86L87.7 12.86L88.64 16.11C88.86 16.9 89.05 17.66 89.19 18.39L89.23 18.39C89.34 17.68 89.49 16.92 89.7 16.11L90.54 12.86L92.05 12.86L92.05 12.86Z" fill="#000000" fill-opacity="1.000000" fill-rule="nonzero"/>
		<path id="Vector" d="M100.02 19.81L98.48 19.81L98.48 15.83C98.48 14.6 98.02 13.99 97.09 13.99C96.63 13.99 96.26 14.15 95.98 14.49C95.7 14.83 95.55 15.23 95.55 15.68L95.55 19.81L94.01 19.81L94.01 14.84C94.01 14.23 94 13.57 93.96 12.85L95.31 12.85L95.38 13.94L95.42 13.94C95.6 13.6 95.87 13.32 96.22 13.1C96.64 12.84 97.1 12.71 97.61 12.71C98.26 12.71 98.8 12.92 99.22 13.34C99.75 13.85 100.02 14.62 100.02 15.64L100.02 19.81Z" fill="#000000" fill-opacity="1.000000" fill-rule="nonzero"/>
		<path id="Vector" d="M104.26 19.81L102.72 19.81L102.72 9.67L104.26 9.67L104.26 19.81Z" fill="#000000" fill-opacity="1.000000" fill-rule="nonzero"/>
		<path id="Vector" d="M113.31 16.27C113.31 17.34 113 18.22 112.4 18.91C111.76 19.61 110.92 19.97 109.86 19.97C108.85 19.97 108.04 19.63 107.44 18.95C106.84 18.27 106.54 17.42 106.54 16.39C106.54 15.31 106.85 14.43 107.47 13.74C108.09 13.06 108.92 12.71 109.98 12.71C110.99 12.71 111.81 13.05 112.43 13.73C113.01 14.39 113.31 15.24 113.31 16.27ZM111.71 16.32C111.71 15.68 111.57 15.13 111.3 14.67C110.98 14.12 110.52 13.84 109.92 13.84C109.3 13.84 108.83 14.12 108.51 14.67C108.24 15.13 108.1 15.69 108.1 16.35C108.1 16.99 108.24 17.54 108.51 18C108.85 18.56 109.31 18.84 109.91 18.84C110.49 18.84 110.95 18.55 111.28 17.99C111.57 17.52 111.71 16.97 111.71 16.32Z" fill="#000000" fill-opacity="1.000000" fill-rule="nonzero"/>
		<path id="Vector" d="M120.75 19.81L119.37 19.81L119.25 19.01L119.21 19.01C118.74 19.65 118.06 19.97 117.19 19.97C116.54 19.97 116.01 19.76 115.61 19.34C115.25 18.96 115.07 18.48 115.07 17.92C115.07 17.07 115.42 16.42 116.13 15.98C116.84 15.53 117.83 15.31 119.11 15.32L119.11 15.19C119.11 14.27 118.63 13.81 117.68 13.81C116.99 13.81 116.39 13.99 115.87 14.33L115.56 13.31C116.2 12.91 117 12.71 117.93 12.71C119.74 12.71 120.65 13.67 120.65 15.59L120.65 18.15C120.65 18.85 120.68 19.4 120.75 19.81ZM119.15 17.42L119.15 16.35C117.45 16.32 116.61 16.79 116.61 17.75C116.61 18.11 116.7 18.38 116.9 18.56C117.1 18.75 117.35 18.84 117.65 18.84C117.99 18.84 118.31 18.73 118.59 18.51C118.88 18.3 119.06 18.03 119.13 17.69C119.14 17.62 119.15 17.52 119.15 17.42Z" fill="#000000" fill-opacity="1.000000" fill-rule="nonzero"/>
		<path id="Vector" d="M129.48 19.81L128.12 19.81L128.04 18.69L128 18.69C127.57 19.54 126.82 19.97 125.78 19.97C124.95 19.97 124.25 19.64 123.7 18.98C123.15 18.32 122.88 17.47 122.88 16.42C122.88 15.29 123.18 14.38 123.78 13.69C124.36 13.04 125.07 12.71 125.91 12.71C126.84 12.71 127.49 13.03 127.86 13.66L127.89 13.66L127.89 9.67L129.42 9.67L129.42 17.94C129.42 18.61 129.44 19.24 129.48 19.81ZM127.89 16.88L127.89 15.72C127.89 15.52 127.87 15.35 127.84 15.23C127.76 14.86 127.57 14.55 127.29 14.29C127 14.04 126.66 13.91 126.26 13.91C125.69 13.91 125.24 14.14 124.91 14.6C124.58 15.06 124.42 15.65 124.42 16.36C124.42 17.05 124.57 17.61 124.89 18.04C125.22 18.49 125.67 18.72 126.23 18.72C126.74 18.72 127.14 18.53 127.45 18.15C127.74 17.8 127.89 17.37 127.89 16.88Z" fill="#000000" fill-opacity="1.000000" fill-rule="nonzero"/>
		<path id="Vector" d="M142.63 16.27C142.63 17.34 142.32 18.22 141.72 18.91C141.08 19.61 140.24 19.97 139.18 19.97C138.17 19.97 137.36 19.63 136.76 18.95C136.15 18.27 135.85 17.42 135.85 16.39C135.85 15.31 136.16 14.43 136.78 13.74C137.41 13.06 138.24 12.71 139.3 12.71C140.31 12.71 141.13 13.05 141.74 13.73C142.33 14.39 142.63 15.24 142.63 16.27ZM141.03 16.32C141.03 15.68 140.89 15.13 140.62 14.67C140.3 14.12 139.84 13.84 139.24 13.84C138.62 13.84 138.16 14.12 137.83 14.67C137.56 15.13 137.42 15.69 137.42 16.35C137.42 16.99 137.56 17.54 137.83 18C138.16 18.56 138.63 18.84 139.23 18.84C139.81 18.84 140.27 18.55 140.61 17.99C140.89 17.52 141.03 16.97 141.03 16.32Z" fill="#000000" fill-opacity="1.000000" fill-rule="nonzero"/>
		<path id="Vector" d="M150.89 19.81L149.35 19.81L149.35 15.83C149.35 14.6 148.89 13.99 147.96 13.99C147.5 13.99 147.14 14.15 146.85 14.49C146.57 14.83 146.42 15.23 146.42 15.68L146.42 19.81L144.89 19.81L144.89 14.84C144.89 14.23 144.87 13.57 144.83 12.85L146.18 12.85L146.25 13.94L146.3 13.94C146.48 13.6 146.74 13.32 147.09 13.1C147.51 12.84 147.97 12.71 148.49 12.71C149.13 12.71 149.67 12.92 150.09 13.34C150.63 13.85 150.89 14.62 150.89 15.64L150.89 19.81Z" fill="#000000" fill-opacity="1.000000" fill-rule="nonzero"/>
		<path id="Vector" d="M161.23 14.01L159.54 14.01L159.54 17.39C159.54 18.25 159.84 18.68 160.44 18.68C160.71 18.68 160.94 18.66 161.12 18.61L161.16 19.78C160.86 19.89 160.46 19.95 159.97 19.95C159.36 19.95 158.89 19.77 158.55 19.39C158.2 19.02 158.03 18.4 158.03 17.52L158.03 14.01L157.02 14.01L157.02 12.86L158.03 12.86L158.03 11.58L159.54 11.12L159.54 12.85L161.23 12.85L161.23 14.01Z" fill="#000000" fill-opacity="1.000000" fill-rule="nonzero"/>
		<path id="Vector" d="M169.37 19.81L167.83 19.81L167.83 15.86C167.83 14.61 167.37 13.99 166.44 13.99C165.73 13.99 165.24 14.35 164.97 15.07C164.93 15.22 164.9 15.41 164.9 15.63L164.9 19.81L163.37 19.81L163.37 9.67L164.9 9.67L164.9 13.86L164.93 13.86C165.42 13.09 166.11 12.71 167.01 12.71C167.65 12.71 168.17 12.92 168.59 13.34C169.11 13.87 169.37 14.64 169.37 15.67L169.37 19.81Z" fill="#000000" fill-opacity="1.000000" fill-rule="nonzero"/>
		<path id="Vector" d="M177.77 16C177.77 16.28 177.75 16.51 177.71 16.7L173.1 16.7C173.12 17.39 173.34 17.91 173.77 18.28C174.16 18.6 174.66 18.76 175.28 18.76C175.96 18.76 176.58 18.66 177.14 18.44L177.38 19.51C176.72 19.8 175.95 19.94 175.06 19.94C173.99 19.94 173.15 19.62 172.54 18.99C171.92 18.35 171.62 17.5 171.62 16.43C171.62 15.39 171.9 14.51 172.47 13.82C173.07 13.07 173.87 12.7 174.89 12.7C175.88 12.7 176.64 13.07 177.15 13.82C177.56 14.41 177.77 15.14 177.77 16ZM176.3 15.6C176.31 15.14 176.21 14.75 176 14.42C175.73 13.99 175.33 13.77 174.78 13.77C174.28 13.77 173.87 13.98 173.55 14.4C173.3 14.74 173.15 15.14 173.1 15.6L176.3 15.6Z" fill="#000000" fill-opacity="1.000000" fill-rule="nonzero"/>
	</g>
</svg>
