<svg width="44.000000" height="44.000000" viewBox="0 0 44 44" fill="none" xmlns="http://www.w3.org/2000/svg" xmlns:xlink="http://www.w3.org/1999/xlink">
	<desc>
			Created with Pixso.
	</desc>
	<defs/>
	<circle id="Ellipse 4" r="22.000000" transform="matrix(-1 0 0 1 22 22)" fill="#FBFBFB" fill-opacity="1.000000"/>
	<circle id="Ellipse 5" r="18.432432" transform="matrix(-1 0 0 1 22 22)" fill="#FBFBFB" fill-opacity="1.000000"/>
	<circle id="Ellipse 5" r="17.837837" transform="matrix(-1 0 0 1 22 22)" stroke="#FF7D01" stroke-opacity="1.000000" stroke-width="1.189189"/>
	<path id="Arrow 1" d="M17.48 22.59L20.43 19.65C20.66 19.41 20.66 19.04 20.43 18.81C20.19 18.57 19.82 18.57 19.59 18.81L16.22 22.17C15.99 22.4 15.99 22.77 16.22 23.01L19.59 26.37C19.82 26.61 20.19 26.61 20.43 26.37C20.66 26.14 20.66 25.77 20.43 25.53L17.48 22.59Z" fill="#FBFBFB" fill-opacity="1.000000" fill-rule="nonzero"/>
	<path id="Arrow 1" d="M18.08 23.18L27.35 23.18L27.35 22L18.08 22L20.43 19.65C20.66 19.41 20.66 19.04 20.43 18.81C20.19 18.57 19.82 18.57 19.59 18.81L16.22 22.17C15.99 22.4 15.99 22.77 16.22 23.01L19.59 26.37C19.82 26.61 20.19 26.61 20.43 26.37C20.66 26.14 20.66 25.77 20.43 25.53L18.08 23.18Z" fill="#FF7D01" fill-opacity="1.000000" fill-rule="evenodd"/>
</svg>
