<svg width="44.000000" height="44.000000" viewBox="0 0 44 44" fill="none" xmlns="http://www.w3.org/2000/svg" xmlns:xlink="http://www.w3.org/1999/xlink">
	<desc>
			Created with Pixso.
	</desc>
	<defs/>
	<circle id="Ellipse 4" cx="22.000000" cy="22.000000" r="22.000000" fill="#FBFBFB" fill-opacity="1.000000"/>
	<circle id="Ellipse 5" cx="22.000061" cy="22.000000" r="18.432432" fill="#FFFFFF" fill-opacity="1.000000"/>
	<circle id="Ellipse 5" cx="22.000061" cy="22.000000" r="17.837837" stroke="#FF7D01" stroke-opacity="1.000000" stroke-width="1.189189"/>
	<path id="Arrow 1" d="M26.51 22.59L23.56 19.65C23.33 19.41 23.33 19.04 23.56 18.81C23.8 18.57 24.17 18.57 24.4 18.81L27.77 22.17C28 22.4 28 22.77 27.77 23.01L24.4 26.37C24.17 26.61 23.8 26.61 23.56 26.37C23.33 26.14 23.33 25.77 23.56 25.53L26.51 22.59Z" fill="#FFFFFF" fill-opacity="1.000000" fill-rule="nonzero"/>
	<path id="Arrow 1" d="M25.91 23.18L16.64 23.18L16.64 22L25.91 22L23.56 19.65C23.33 19.41 23.33 19.04 23.56 18.81C23.8 18.57 24.17 18.57 24.4 18.81L27.77 22.17C28 22.4 28 22.77 27.77 23.01L24.4 26.37C24.17 26.61 23.8 26.61 23.56 26.37C23.33 26.14 23.33 25.77 23.56 25.53L25.91 23.18Z" fill="#FF7D01" fill-opacity="1.000000" fill-rule="evenodd"/>
</svg>
