<svg width="17.500000" height="15.000000" viewBox="0 0 17.5 15" fill="none" xmlns="http://www.w3.org/2000/svg" xmlns:xlink="http://www.w3.org/1999/xlink">
	<desc>
			Created with Pixso.
	</desc>
	<defs/>
	<g opacity="0.200000">
		<path id="Vector" d="M3.12 4.37L5.62 10.62C5.62 12 4.06 12.5 3.12 12.5C2.18 12.5 0.62 12 0.62 10.62L3.12 4.37ZM14.37 1.87L11.87 8.12C11.87 9.5 13.43 10 14.37 10C15.31 10 16.87 9.5 16.87 8.12L14.37 1.87Z" fill="#1D1D1D" fill-opacity="1.000000" fill-rule="nonzero"/>
	</g>
	<path id="Vector" d="M17.45 7.89L14.95 1.64C14.9 1.5 14.79 1.38 14.66 1.32C14.53 1.25 14.38 1.23 14.23 1.26L9.37 2.34L9.37 0.62C9.37 0.45 9.3 0.3 9.19 0.18C9.07 0.06 8.91 0 8.75 0C8.58 0 8.42 0.06 8.3 0.18C8.19 0.3 8.12 0.45 8.12 0.62L8.12 2.62L2.98 3.76C2.89 3.78 2.79 3.83 2.72 3.89C2.64 3.96 2.58 4.04 2.54 4.14L2.54 4.14L0.04 10.39C0.01 10.46 -0.01 10.54 0 10.62C0 12.44 1.91 13.12 3.12 13.12C4.33 13.12 6.25 12.44 6.25 10.62C6.25 10.54 6.23 10.46 6.2 10.39L3.97 4.82L8.12 3.9L8.12 13.75L6.87 13.75C6.7 13.75 6.55 13.81 6.43 13.93C6.31 14.05 6.25 14.2 6.25 14.37C6.25 14.54 6.31 14.69 6.43 14.81C6.55 14.93 6.7 15 6.87 15L10.62 15C10.79 15 10.94 14.93 11.06 14.81C11.18 14.69 11.25 14.54 11.25 14.37C11.25 14.2 11.18 14.05 11.06 13.93C10.94 13.81 10.79 13.75 10.62 13.75L9.37 13.75L9.37 3.62L13.35 2.74L11.29 7.89C11.26 7.96 11.24 8.04 11.25 8.12C11.25 9.94 13.16 10.62 14.37 10.62C15.58 10.62 17.5 9.94 17.5 8.12C17.5 8.04 17.48 7.96 17.45 7.89ZM3.12 11.87C2.53 11.87 1.34 11.59 1.25 10.73L3.12 6.05L4.99 10.73C4.9 11.59 3.71 11.87 3.12 11.87ZM14.37 9.37C13.78 9.37 12.59 9.09 12.5 8.23L14.37 3.55L16.24 8.23C16.15 9.09 14.96 9.37 14.37 9.37Z" fill="#1D1D1D" fill-opacity="1.000000" fill-rule="nonzero"/>
</svg>
