<svg width="197.000000" height="59.000000" viewBox="0 0 197 59" fill="none" xmlns="http://www.w3.org/2000/svg" xmlns:xlink="http://www.w3.org/1999/xlink">
	<desc>
			Created with Pixso.
	</desc>
	<defs>
		<clipPath id="clip1_1309">
			<rect id="Google_Play_Store_badge_EN 1" width="197.000000" height="59.000000" fill="white" fill-opacity="0"/>
		</clipPath>
	</defs>
	<rect id="Google_Play_Store_badge_EN 1" width="197.000000" height="59.000000" fill="#FFFFFF" fill-opacity="0"/>
	<g clip-path="url(#clip1_1309)">
		<path id="path11" d="M189.7 58.99L7.29 58.99C3.28 58.99 0 55.68 0 51.62L0 7.37C0 3.31 3.28 0 7.29 0L189.7 0C193.71 0 196.99 3.31 196.99 7.37L196.99 51.62C196.99 55.68 193.71 58.99 189.7 58.99Z" fill="#FFFFFF" fill-opacity="1.000000" fill-rule="nonzero"/>
		<path id="path13" d="M189.7 0L7.29 0C3.28 0 0 3.31 0 7.37L0 51.62C0 55.68 3.28 58.99 7.29 58.99L189.7 58.99C193.71 58.99 196.99 55.68 196.99 51.62L196.99 7.37C196.99 3.31 193.71 0 189.7 0ZM189.7 1.18C193.08 1.18 195.82 3.95 195.82 7.37L195.82 51.62C195.82 55.04 193.08 57.82 189.7 57.82L7.29 57.82C3.92 57.82 1.17 55.04 1.17 51.62L1.17 7.37C1.17 3.95 3.92 1.18 7.29 1.18L189.7 1.18Z" fill="#000000" fill-opacity="1.000000" fill-rule="nonzero"/>
		<path id="path35" d="M156.04 44.25L158.76 44.25L158.76 25.81L156.04 25.81L156.04 44.25ZM180.57 32.45L177.45 40.44L177.35 40.44L174.11 32.45L171.18 32.45L176.04 43.62L173.27 49.84L176.11 49.84L183.59 32.45L180.57 32.45ZM165.12 42.15C164.23 42.15 162.99 41.7 162.99 40.58C162.99 39.16 164.54 38.62 165.88 38.62C167.07 38.62 167.64 38.88 168.36 39.23C168.15 40.94 166.7 42.15 165.12 42.15ZM165.45 32.05C163.48 32.05 161.44 32.92 160.6 34.87L163.01 35.89C163.53 34.87 164.49 34.54 165.5 34.54C166.91 34.54 168.34 35.39 168.36 36.91L168.36 37.1C167.87 36.81 166.81 36.39 165.52 36.39C162.92 36.39 160.27 37.83 160.27 40.54C160.27 43 162.4 44.59 164.8 44.59C166.63 44.59 167.64 43.76 168.27 42.79L168.36 42.79L168.36 44.22L170.99 44.22L170.99 37.15C170.99 33.87 168.57 32.05 165.45 32.05ZM148.63 34.69L144.75 34.69L144.75 28.37L148.63 28.37C150.66 28.37 151.82 30.08 151.82 31.53C151.82 32.96 150.66 34.69 148.63 34.69ZM148.56 25.81L142.03 25.81L142.03 44.25L144.75 44.25L144.75 37.26L148.56 37.26C151.57 37.26 154.54 35.05 154.54 31.53C154.54 28.02 151.57 25.81 148.56 25.81ZM112.98 42.15C111.1 42.15 109.52 40.56 109.52 38.38C109.52 36.17 111.1 34.55 112.98 34.55C114.84 34.55 116.29 36.17 116.29 38.38C116.29 40.56 114.84 42.15 112.98 42.15ZM116.11 33.48L116.01 33.48C115.4 32.74 114.22 32.08 112.74 32.08C109.64 32.08 106.8 34.84 106.8 38.38C106.8 41.89 109.64 44.63 112.74 44.63C114.22 44.63 115.4 43.96 116.01 43.2L116.11 43.2L116.11 44.1C116.11 46.5 114.84 47.79 112.79 47.79C111.12 47.79 110.09 46.57 109.66 45.55L107.29 46.55C107.97 48.21 109.78 50.26 112.79 50.26C115.99 50.26 118.69 48.36 118.69 43.72L118.69 32.46L116.11 32.46L116.11 33.48ZM120.57 44.24L123.3 44.24L123.3 25.8L120.57 25.8L120.57 44.24ZM127.32 38.16C127.25 35.74 129.18 34.5 130.56 34.5C131.64 34.5 132.56 35.05 132.87 35.83L127.32 38.16ZM135.78 36.07C135.26 34.67 133.69 32.08 130.47 32.08C127.27 32.08 124.62 34.62 124.62 38.35C124.62 41.87 127.25 44.63 130.77 44.63C133.62 44.63 135.27 42.87 135.95 41.85L133.83 40.42C133.13 41.47 132.16 42.15 130.77 42.15C129.39 42.15 128.4 41.51 127.77 40.25L136.06 36.78L135.78 36.07ZM69.67 34L69.67 36.66L75.97 36.66C75.78 38.16 75.29 39.25 74.53 40.02C73.62 40.94 72.18 41.96 69.67 41.96C65.79 41.96 62.76 38.8 62.76 34.88C62.76 30.96 65.79 27.8 69.67 27.8C71.76 27.8 73.29 28.63 74.42 29.7L76.27 27.82C74.7 26.3 72.61 25.14 69.67 25.14C64.35 25.14 59.89 29.51 59.89 34.88C59.89 40.25 64.35 44.63 69.67 44.63C72.53 44.63 74.7 43.67 76.39 41.89C78.13 40.13 78.67 37.66 78.67 35.67C78.67 35.05 78.62 34.48 78.53 34L69.67 34ZM85.83 42.15C83.95 42.15 82.33 40.59 82.33 38.35C82.33 36.09 83.95 34.55 85.83 34.55C87.71 34.55 89.34 36.09 89.34 38.35C89.34 40.59 87.71 42.15 85.83 42.15ZM85.83 32.08C82.4 32.08 79.6 34.72 79.6 38.35C79.6 41.96 82.4 44.63 85.83 44.63C89.27 44.63 92.06 41.96 92.06 38.35C92.06 34.72 89.27 32.08 85.83 32.08ZM99.42 42.15C97.54 42.15 95.92 40.59 95.92 38.35C95.92 36.09 97.54 34.55 99.42 34.55C101.31 34.55 102.93 36.09 102.93 38.35C102.93 40.59 101.31 42.15 99.42 42.15ZM99.42 32.08C95.99 32.08 93.19 34.72 93.19 38.35C93.19 41.96 95.99 44.63 99.42 44.63C102.86 44.63 105.65 41.96 105.65 38.35C105.65 34.72 102.86 32.08 99.42 32.08Z" fill="#000000" fill-opacity="1.000000" fill-rule="nonzero"/>
		<path id="path37" d="M30.23 28.65L14.69 45.31C14.69 45.32 14.69 45.32 14.69 45.32C15.17 47.13 16.81 48.47 18.75 48.47C19.52 48.47 20.25 48.25 20.88 47.88L20.92 47.85L38.41 37.65L30.23 28.65Z" fill="#EB3131" fill-opacity="1.000000" fill-rule="nonzero"/>
		<path id="path39" d="M45.94 25.81L45.93 25.8L38.38 21.37L29.87 29.02L38.41 37.65L45.92 33.27C47.23 32.55 48.13 31.15 48.13 29.53C48.13 27.93 47.25 26.53 45.94 25.81Z" fill="#F6B60B" fill-opacity="1.000000" fill-rule="nonzero"/>
		<path id="path41" d="M14.69 13.68C14.6 14.03 14.55 14.39 14.55 14.77L14.55 44.22C14.55 44.6 14.6 44.97 14.69 45.31L30.76 29.07L14.69 13.68Z" fill="#5778C5" fill-opacity="1.000000" fill-rule="nonzero"/>
		<path id="path43" d="M30.34 29.5L38.38 21.37L20.91 11.13C20.28 10.75 19.54 10.53 18.75 10.53C16.81 10.53 15.17 11.86 14.69 13.68C14.69 13.68 14.69 13.68 14.69 13.68L30.34 29.5Z" fill="#3BAD49" fill-opacity="1.000000" fill-rule="nonzero"/>
		<path id="path33" d="M69.16 14.42L64.9 14.42L64.9 15.49L68.09 15.49C68 16.36 67.66 17.04 67.08 17.53C66.51 18.03 65.77 18.28 64.9 18.28C63.94 18.28 63.13 17.94 62.47 17.27C61.82 16.59 61.49 15.75 61.49 14.73C61.49 13.72 61.82 12.87 62.47 12.19C63.13 11.52 63.94 11.19 64.9 11.19C65.39 11.19 65.86 11.27 66.29 11.46C66.71 11.65 67.06 11.91 67.33 12.24L68.14 11.42C67.77 11 67.3 10.68 66.73 10.44C66.15 10.21 65.55 10.09 64.9 10.09C63.62 10.09 62.54 10.54 61.66 11.43C60.78 12.33 60.34 13.43 60.34 14.73C60.34 16.03 60.78 17.14 61.66 18.03C62.54 18.92 63.62 19.37 64.9 19.37C66.24 19.37 67.3 18.94 68.13 18.06C68.85 17.32 69.22 16.33 69.22 15.09C69.22 14.88 69.19 14.66 69.16 14.42ZM70.81 10.29L70.81 19.17L75.93 19.17L75.93 18.08L71.93 18.08L71.93 15.26L75.54 15.26L75.54 14.2L71.93 14.2L71.93 11.39L75.93 11.39L75.93 10.29L70.81 10.29ZM83.12 11.39L83.12 10.29L77.09 10.29L77.09 11.39L79.54 11.39L79.54 19.17L80.67 19.17L80.67 11.39L83.12 11.39ZM88.59 10.29L87.46 10.29L87.46 19.17L88.59 19.17L88.59 10.29ZM96.04 11.39L96.04 10.29L90 10.29L90 11.39L92.45 11.39L92.45 19.17L93.58 19.17L93.58 11.39L96.04 11.39ZM107.43 11.45C106.56 10.54 105.49 10.09 104.21 10.09C102.94 10.09 101.87 10.54 101 11.43C100.13 12.31 99.7 13.42 99.7 14.73C99.7 16.05 100.13 17.15 101 18.03C101.87 18.92 102.94 19.37 104.21 19.37C105.48 19.37 106.55 18.92 107.43 18.03C108.3 17.15 108.73 16.05 108.73 14.73C108.73 13.43 108.3 12.33 107.43 11.45ZM101.81 12.19C102.46 11.52 103.26 11.19 104.21 11.19C105.17 11.19 105.97 11.52 106.61 12.19C107.26 12.85 107.57 13.7 107.57 14.73C107.57 15.76 107.26 16.62 106.61 17.27C105.97 17.94 105.17 18.28 104.21 18.28C103.26 18.28 102.46 17.94 101.81 17.27C101.17 16.6 100.85 15.76 100.85 14.73C100.85 13.7 101.17 12.86 101.81 12.19ZM111.41 13.64L111.36 11.93L111.41 11.93L115.87 19.17L117.05 19.17L117.05 10.29L115.92 10.29L115.92 15.49L115.97 17.2L115.92 17.2L111.65 10.29L110.28 10.29L110.28 19.17L111.41 19.17L111.41 13.64Z" fill="#000000" fill-opacity="1.000000" fill-rule="nonzero"/>
		<path id="path33" d="M64.9 14.42L64.9 15.49L68.09 15.49C68 16.36 67.66 17.04 67.08 17.53C66.51 18.03 65.77 18.28 64.9 18.28C63.94 18.28 63.13 17.94 62.47 17.27C61.82 16.59 61.49 15.75 61.49 14.73C61.49 13.72 61.82 12.87 62.47 12.19C63.13 11.52 63.94 11.19 64.9 11.19C65.39 11.19 65.86 11.27 66.29 11.46C66.71 11.65 67.06 11.91 67.33 12.24L68.14 11.42C67.77 11 67.3 10.68 66.73 10.44C66.15 10.21 65.55 10.09 64.9 10.09C63.62 10.09 62.54 10.54 61.66 11.43C60.78 12.33 60.34 13.43 60.34 14.73C60.34 16.03 60.78 17.14 61.66 18.03C62.54 18.92 63.62 19.37 64.9 19.37C66.24 19.37 67.3 18.94 68.13 18.06C68.85 17.32 69.22 16.33 69.22 15.09C69.22 14.88 69.19 14.66 69.16 14.42L64.9 14.42ZM70.81 19.17L75.93 19.17L75.93 18.08L71.93 18.08L71.93 15.26L75.54 15.26L75.54 14.2L71.93 14.2L71.93 11.39L75.93 11.39L75.93 10.29L70.81 10.29L70.81 19.17ZM83.12 10.29L77.09 10.29L77.09 11.39L79.54 11.39L79.54 19.17L80.67 19.17L80.67 11.39L83.12 11.39L83.12 10.29ZM87.46 10.29L87.46 19.17L88.59 19.17L88.59 10.29L87.46 10.29ZM96.04 10.29L90 10.29L90 11.39L92.45 11.39L92.45 19.17L93.58 19.17L93.58 11.39L96.04 11.39L96.04 10.29ZM104.21 10.09C102.94 10.09 101.87 10.54 101 11.43C100.13 12.31 99.7 13.42 99.7 14.73C99.7 16.05 100.13 17.15 101 18.03C101.87 18.92 102.94 19.37 104.21 19.37C105.48 19.37 106.55 18.92 107.43 18.03C108.3 17.15 108.73 16.05 108.73 14.73C108.73 13.43 108.3 12.33 107.43 11.45C106.56 10.54 105.49 10.09 104.21 10.09ZM104.21 11.19C105.17 11.19 105.97 11.52 106.61 12.19C107.26 12.85 107.57 13.7 107.57 14.73C107.57 15.76 107.26 16.62 106.61 17.27C105.97 17.94 105.17 18.28 104.21 18.28C103.26 18.28 102.46 17.94 101.81 17.27C101.17 16.6 100.85 15.76 100.85 14.73C100.85 13.7 101.17 12.86 101.81 12.19C102.46 11.52 103.26 11.19 104.21 11.19ZM111.36 11.93L111.41 11.93L115.87 19.17L117.05 19.17L117.05 10.29L115.92 10.29L115.92 15.49L115.97 17.2L115.92 17.2L111.65 10.29L110.28 10.29L110.28 19.17L111.41 19.17L111.41 13.64L111.36 11.93Z" stroke="#000000" stroke-opacity="1.000000" stroke-width="0.266660"/>
	</g>
</svg>
