<svg width="26.025085" height="25.026367" viewBox="0 0 26.0251 25.0264" fill="none" xmlns="http://www.w3.org/2000/svg" xmlns:xlink="http://www.w3.org/1999/xlink">
	<desc>
			Created with Pixso.
	</desc>
	<defs/>
	<g opacity="0.200000">
		<path id="Vector" d="M21.01 9C21.01 10.58 20.54 12.13 19.66 13.44C18.78 14.76 17.53 15.78 16.07 16.39C14.61 17 13 17.15 11.45 16.84C9.9 16.54 8.47 15.77 7.35 14.66C6.23 13.54 5.47 12.11 5.16 10.56C4.85 9.01 5.01 7.4 5.62 5.94C6.22 4.47 7.25 3.23 8.56 2.35C9.88 1.47 11.43 1 13.01 1C15.13 1 17.16 1.84 18.66 3.34C20.16 4.84 21.01 6.88 21.01 9Z" fill="#FF7D01" fill-opacity="1.000000" fill-rule="nonzero"/>
	</g>
	<path id="Vector" d="M25.87 23.5C23.97 20.21 21.04 17.85 17.61 16.73C19.3 15.72 20.62 14.18 21.36 12.36C22.09 10.53 22.21 8.51 21.69 6.61C21.16 4.71 20.03 3.03 18.46 1.84C16.89 0.64 14.98 0 13.01 0C11.04 0 9.12 0.64 7.55 1.84C5.98 3.03 4.85 4.71 4.33 6.61C3.81 8.51 3.92 10.53 4.66 12.36C5.39 14.18 6.71 15.72 8.4 16.73C4.98 17.85 2.05 20.21 0.14 23.5C0.07 23.61 0.03 23.74 0.01 23.87C-0.01 24 -0.01 24.14 0.03 24.27C0.06 24.4 0.12 24.52 0.2 24.62C0.28 24.73 0.38 24.82 0.49 24.89C0.61 24.95 0.74 25 0.87 25.01C1 25.03 1.14 25.02 1.27 24.98C1.39 24.95 1.51 24.89 1.62 24.8C1.72 24.72 1.81 24.62 1.87 24.5C4.23 20.43 8.39 18 13.01 18C17.62 18 21.79 20.43 24.14 24.5C24.21 24.62 24.29 24.72 24.4 24.8C24.5 24.89 24.62 24.95 24.75 24.98C24.88 25.02 25.01 25.03 25.14 25.01C25.28 25 25.4 24.95 25.52 24.89C25.64 24.82 25.74 24.73 25.82 24.62C25.9 24.52 25.96 24.4 25.99 24.27C26.02 24.14 26.03 24 26.01 23.87C25.99 23.74 25.94 23.61 25.87 23.5ZM6.01 9C6.01 7.61 6.42 6.26 7.19 5.11C7.96 3.96 9.05 3.06 10.33 2.53C11.61 2 13.02 1.86 14.37 2.13C15.73 2.4 16.98 3.07 17.96 4.05C18.94 5.03 19.6 6.27 19.87 7.63C20.14 8.99 20 10.4 19.47 11.68C18.94 12.96 18.05 14.05 16.9 14.82C15.75 15.59 14.39 16 13.01 16C11.15 16 9.37 15.26 8.06 13.95C6.75 12.63 6.01 10.85 6.01 9Z" fill="#FF7D01" fill-opacity="1.000000" fill-rule="nonzero"/>
</svg>
