<svg width="17.142853" height="17.143066" viewBox="0 0 17.1429 17.1431" fill="none" xmlns="http://www.w3.org/2000/svg" xmlns:xlink="http://www.w3.org/1999/xlink">
	<desc>
			Created with Pixso.
	</desc>
	<defs/>
	<path id="Vector" d="M16.9 14.25L14.48 16.65C14.13 17.01 13.65 17.14 13.19 17.14C11.16 17.08 9.23 16.08 7.65 15.05C5.06 13.16 2.67 10.82 1.18 7.99C0.61 6.81 -0.06 5.29 0 3.97C0.01 3.47 0.14 2.98 0.49 2.66L2.91 0.25C3.41 -0.18 3.89 -0.03 4.22 0.46L6.16 4.15C6.36 4.59 6.25 5.06 5.94 5.37L5.05 6.26C5 6.33 4.96 6.42 4.96 6.51C5.3 7.83 6.34 9.05 7.25 9.89C8.16 10.73 9.15 11.87 10.42 12.13C10.58 12.18 10.77 12.19 10.88 12.09L11.92 11.04C12.28 10.76 12.79 10.63 13.17 10.85L13.19 10.85L16.7 12.92C17.21 13.25 17.27 13.87 16.9 14.25Z" fill="#FF7D01" fill-opacity="1.000000" fill-rule="nonzero"/>
</svg>
