<svg width="16.526520" height="16.524902" viewBox="0 0 16.5265 16.5249" fill="none" xmlns="http://www.w3.org/2000/svg" xmlns:xlink="http://www.w3.org/1999/xlink">
	<desc>
			Created with Pixso.
	</desc>
	<defs/>
	<path id="Vector" d="M10.95 12.41C9.55 13.43 7.82 13.9 6.1 13.7C4.37 13.51 2.79 12.67 1.66 11.35C0.53 10.04 -0.07 8.34 0 6.61C0.07 4.88 0.78 3.23 2.01 2.01C3.23 0.78 4.88 0.07 6.61 0C8.34 -0.07 10.04 0.53 11.35 1.66C12.67 2.79 13.51 4.37 13.7 6.1C13.9 7.82 13.43 9.55 12.41 10.95L16.19 14.73C16.29 14.83 16.38 14.94 16.43 15.07C16.49 15.2 16.52 15.33 16.52 15.47C16.52 15.61 16.5 15.75 16.45 15.88C16.39 16 16.32 16.12 16.22 16.22C16.12 16.32 16 16.39 15.88 16.45C15.75 16.5 15.61 16.52 15.47 16.52C15.33 16.52 15.2 16.49 15.07 16.43C14.94 16.37 14.83 16.29 14.74 16.19L10.95 12.41ZM11.68 6.87C11.68 8.15 11.18 9.37 10.27 10.27C9.37 11.17 8.15 11.68 6.87 11.68C5.59 11.68 4.37 11.17 3.47 10.27C2.57 9.37 2.06 8.15 2.06 6.87C2.06 5.59 2.57 4.37 3.47 3.47C4.37 2.56 5.59 2.06 6.87 2.06C8.15 2.06 9.37 2.56 10.27 3.47C11.18 4.37 11.68 5.59 11.68 6.87Z" fill="#FFFFFF" fill-opacity="1.000000" fill-rule="evenodd"/>
</svg>
